<svg id="Component_1_1" data-name="Component 1 – 1" xmlns="http://www.w3.org/2000/svg" width="672" height="2223" viewBox="0 0 672 2223">
  <g id="Path_1" data-name="Path 1" fill="#b7b4b4">
    <path d="M 671.5 2222.07421875 L 332.61083984375 2222.07421875 L 0.5 2222.07421875 L 0.5 0.5001649260520935 L 671.5 0.5001649260520935 L 671.5 2222.07421875 Z" stroke="none"/>
    <path d="M 1 1 L 1 2221.573974609375 L 332.61083984375 2221.573974609375 L 671 2221.573974609375 L 671 1 L 1 1 M 0 0 L 672 0 L 672 2222.573974609375 L 332.61083984375 2222.573974609375 L 0 2222.573974609375 L 0 0 Z" stroke="none" fill="#707070"/>
  </g>
  <text id="Being_a_Troglodyte_I_rarely_come_out_of_my_cave_room_._But_some_places_are_worth_coming_out_of_your_comfort_zone._And_Mandle_waterfall_is_one_of_them._Which_gives_you_a_mind-blowing_experience_by_taking_very_close_to_nature._Mandle_is_a_village_in_Mahad" data-name="Being a Troglodyte I rarely come out of my cave (room). But some places are worth coming out of your comfort zone. And Mandle waterfall is one of them. Which gives you a mind-blowing experience by taking very close to nature.

 Mandle is a village in Mahad" transform="translate(44 45)" fill="#f00e0e" font-size="25" font-family="Chalkboard"><tspan x="0" y="25">Being a Troglodyte I rarely come out of my cave </tspan><tspan x="0" y="57">(room). But some places are worth coming out of </tspan><tspan x="0" y="89">your comfort zone. And Mandle waterfall is one </tspan><tspan x="0" y="121">of them. Which gives you a mind-blowing </tspan><tspan x="0" y="153">experience by taking very close to nature.</tspan><tspan x="0" y="185"></tspan><tspan x="0" y="217" xml:space="preserve"> Mandle is a village in Mahad taluka, Raigad </tspan><tspan x="0" y="249">district situated 10km away from the main town </tspan><tspan x="0" y="281">Mahad.</tspan><tspan x="0" y="313" xml:space="preserve">  And let me tell you I&apos;m born and brought up in </tspan><tspan x="0" y="345">Mahad itself and in all my 19 years of life this </tspan><tspan x="0" y="377">was my first time to Mandle. And now you must </tspan><tspan x="0" y="409">be realizing why I used the term &quot;Troglodyte&quot; </tspan><tspan x="0" y="441">for me!</tspan><tspan x="0" y="473"> </tspan><tspan x="0" y="505">If this place has fascinated a homebody like me </tspan><tspan x="0" y="537">then trust me an outdoorsy will fall for this </tspan><tspan x="0" y="569">place. </tspan><tspan x="0" y="601"></tspan><tspan x="0" y="633">The best part of visiting this place is the beauty </tspan><tspan x="0" y="665">of not only the location but also of the entire </tspan><tspan x="0" y="697">journey, from Mahad it takes about 20 minutes </tspan><tspan x="0" y="729">to reach the village, and here&apos;s where you need </tspan><tspan x="0" y="761">to keep your vehicle and walk ahead to your </tspan><tspan x="0" y="793">destination for approximately 30 minutes ...</tspan><tspan x="0" y="825">Nah! Don&apos;t be scared because rather than the </tspan><tspan x="0" y="857">destination the journey gonna be your favorite </tspan><tspan x="0" y="889">as you will be experiencing every little detail in </tspan><tspan x="0" y="921">nature and village life.</tspan><tspan x="0" y="953">And I bet these days social media freaks will </tspan><tspan x="0" y="985">not be able to put their cameras down even for </tspan><tspan x="0" y="1017">a second.</tspan><tspan x="0" y="1049"></tspan><tspan x="0" y="1081">Your main journey begins from the village with </tspan><tspan x="0" y="1113">authentic Maharashtrian households. Walking on </tspan><tspan x="0" y="1145">those tiny pathways made from mud and cow </tspan><tspan x="0" y="1177">dung gives you a very typical village vibe. </tspan><tspan x="0" y="1209">Immediate after the village there is a river with </tspan><tspan x="0" y="1241">a small bridge connecting the fields and village. </tspan><tspan x="0" y="1273">And now you will be walking on the small </tspan><tspan x="0" y="1305">pathway between the fields of rice and </tspan><tspan x="0" y="1337">witnessing the eye and mind pleasing greenery. </tspan><tspan x="0" y="1369">Make sure you are wearing shoes with great </tspan><tspan x="0" y="1401">grip because chances of skidding are very high </tspan><tspan x="0" y="1433">as you will be also crossing the river stream, </tspan><tspan x="0" y="1465">clambering on the rocks near the waterfall. </tspan><tspan x="0" y="1497">After all, the adventure here&apos;s our prodigious </tspan><tspan x="0" y="1529">water body falling straight down in the plunge </tspan><tspan x="0" y="1561">pool.</tspan><tspan x="0" y="1593">Rocks covering the plunge pool in C shape and a </tspan><tspan x="0" y="1625">stream flowing vertically through it with the </tspan><tspan x="0" y="1657">sun above bless you with a rainbow. </tspan><tspan x="0" y="1689">The rainbow feels like a small bridge over your </tspan><tspan x="0" y="1721">head touching opposite corners of the pool. </tspan><tspan x="0" y="1753">Diving into the pool and splashing water makes </tspan><tspan x="0" y="1785">everyone involved in the game of revenge. </tspan><tspan x="0" y="1817">After enjoying in water, if you are lucky enough </tspan><tspan x="0" y="1849">and the climate favors you with the sunny day </tspan><tspan x="0" y="1881">you can dry up yourself by sunbathing by </tspan><tspan x="0" y="1913">relaxing on the chill rocks before heading back </tspan><tspan x="0" y="1945">towards the village enjoying the same small </tspan><tspan x="0" y="1977">pathways in fields with the sweet voice of many </tspan><tspan x="0" y="2009">organisms, slippery stones, river streams, bridge </tspan><tspan x="0" y="2041">and most important smell of wet soil in fields. </tspan><tspan x="0" y="2073"></tspan><tspan x="0" y="2105">This entire trip proves to be the relaxing </tspan><tspan x="0" y="2137">therapy that shucks off your stress...</tspan></text>
</svg>
