<svg xmlns="http://www.w3.org/2000/svg" width="119.929" height="119.929" viewBox="0 0 119.929 119.929">
  <path id="Icon_awesome-chevron-circle-down" data-name="Icon awesome-chevron-circle-down" d="M120.491,60.527A59.964,59.964,0,1,1,60.527.563,59.954,59.954,0,0,1,120.491,60.527ZM64.637,88.067,97.4,55.3a5.779,5.779,0,0,0,0-8.2L93.289,43a5.779,5.779,0,0,0-8.2,0L60.527,67.563,35.961,43a5.779,5.779,0,0,0-8.2,0l-4.11,4.11a5.779,5.779,0,0,0,0,8.2L56.416,88.067A5.808,5.808,0,0,0,64.637,88.067Z" transform="translate(-0.563 -0.563)" fill="#ebc521"/>
</svg>
