<svg xmlns="http://www.w3.org/2000/svg" width="86.217" height="86.217" viewBox="0 0 86.217 86.217">
  <path id="Icon_metro-facebook" data-name="Icon metro-facebook" d="M74.42,1.928H16.939A14.369,14.369,0,0,0,2.571,16.3V73.774A14.369,14.369,0,0,0,16.939,88.145H45.679V50.425H34.9V39.648H45.679V31.565A13.471,13.471,0,0,1,59.151,18.094H72.622V28.871H59.151a2.694,2.694,0,0,0-2.694,2.694v8.083H71.275L68.581,50.425H56.456v37.72H74.42A14.369,14.369,0,0,0,88.788,73.774V16.3A14.37,14.37,0,0,0,74.42,1.928Z" transform="translate(-2.571 -1.928)" fill="#ebc521"/>
</svg>
