<svg xmlns="http://www.w3.org/2000/svg" width="86.217" height="86.217" viewBox="0 0 86.217 86.217">
  <path id="Icon_simple-instagram" data-name="Icon simple-instagram" d="M43.109,0C31.4,0,29.935.054,25.337.259a31.787,31.787,0,0,0-10.465,2A21.111,21.111,0,0,0,7.235,7.235a21.034,21.034,0,0,0-4.972,7.637,31.694,31.694,0,0,0-2,10.465C.043,29.935,0,31.4,0,43.109S.054,56.282.259,60.88a31.807,31.807,0,0,0,2,10.465,21.141,21.141,0,0,0,4.972,7.637,21.08,21.08,0,0,0,7.637,4.972,31.827,31.827,0,0,0,10.465,2c4.6.216,6.06.259,17.771.259s13.173-.054,17.771-.259a31.9,31.9,0,0,0,10.465-2A22.031,22.031,0,0,0,83.954,71.345a31.807,31.807,0,0,0,2-10.465c.216-4.6.259-6.06.259-17.771s-.054-13.173-.259-17.771a31.881,31.881,0,0,0-2-10.465,21.158,21.158,0,0,0-4.972-7.637,21,21,0,0,0-7.637-4.972,31.714,31.714,0,0,0-10.465-2C56.282.043,54.82,0,43.109,0Zm0,7.76c11.506,0,12.879.057,17.423.255a23.751,23.751,0,0,1,8,1.491,14.186,14.186,0,0,1,8.183,8.18,23.8,23.8,0,0,1,1.484,8c.2,4.548.251,5.913.251,17.423s-.054,12.879-.266,17.423a24.26,24.26,0,0,1-1.512,8,13.688,13.688,0,0,1-3.23,4.965,13.449,13.449,0,0,1-4.957,3.219A23.976,23.976,0,0,1,60.456,78.2c-4.577.2-5.924.251-17.455.251s-12.882-.054-17.455-.266a24.444,24.444,0,0,1-8.033-1.512,13.35,13.35,0,0,1-4.954-3.23,13.09,13.09,0,0,1-3.233-4.957,24.465,24.465,0,0,1-1.509-8.029c-.162-4.526-.219-5.924-.219-17.4s.057-12.882.219-17.463a24.437,24.437,0,0,1,1.509-8.025,12.779,12.779,0,0,1,3.233-4.961A12.751,12.751,0,0,1,17.513,9.38a23.859,23.859,0,0,1,7.979-1.512c4.58-.162,5.927-.216,17.455-.216l.162.108Zm0,13.213A22.136,22.136,0,1,0,65.245,43.109,22.135,22.135,0,0,0,43.109,20.972Zm0,36.506a14.37,14.37,0,1,1,14.37-14.37A14.366,14.366,0,0,1,43.109,57.478ZM71.294,20.1a5.173,5.173,0,1,1-5.173-5.169A5.177,5.177,0,0,1,71.294,20.1Z" fill="#ebc521"/>
</svg>
