<svg xmlns="http://www.w3.org/2000/svg" width="84.55" height="84.55" viewBox="0 0 84.55 84.55">
  <path id="Icon_awesome-linkedin" data-name="Icon awesome-linkedin" d="M78.51,2.25H6.02A6.065,6.065,0,0,0,0,8.346V80.7a6.065,6.065,0,0,0,6.02,6.1H78.51a6.081,6.081,0,0,0,6.039-6.1V8.346A6.081,6.081,0,0,0,78.51,2.25ZM25.554,74.721H13.022V34.371h12.55v40.35ZM19.288,28.86a7.266,7.266,0,1,1,7.266-7.266A7.269,7.269,0,0,1,19.288,28.86Zm53.24,45.861H60V55.093c0-4.68-.094-10.7-6.511-10.7-6.53,0-7.53,5.1-7.53,10.361V74.721H33.424V34.371H45.445v5.511h.17c1.68-3.171,5.775-6.511,11.871-6.511,12.682,0,15.042,8.361,15.042,19.231Z" transform="translate(0 -2.25)" fill="#ebc521"/>
</svg>
