<svg xmlns="http://www.w3.org/2000/svg" width="86.217" height="82.572" viewBox="0 0 86.217 82.572">
  <path id="Icon_awesome-github" data-name="Icon awesome-github" d="M28.838,67.049c0,.341-.4.615-.9.615-.574.051-.973-.222-.973-.615,0-.341.4-.615.9-.615C28.386,66.383,28.838,66.657,28.838,67.049Zm-5.406-.768c-.122.341.226.734.747.837a.822.822,0,0,0,1.078-.341c.1-.341-.226-.734-.747-.888A.9.9,0,0,0,23.432,66.281Zm7.683-.29c-.5.12-.852.444-.8.837.052.341.5.563,1.026.444.5-.12.852-.444.8-.785C32.088,66.162,31.619,65.94,31.115,65.991ZM42.552.563C18.443.563,0,18.542,0,42.224A42.869,42.869,0,0,0,29.463,83.065c2.225.393,3.007-.956,3.007-2.066,0-1.059-.052-6.9-.052-10.484,0,0-12.168,2.561-14.723-5.088,0,0-1.982-4.969-4.832-6.249,0,0-3.981-2.681.278-2.629a9.206,9.206,0,0,1,6.71,4.405c3.807,6.591,10.186,4.7,12.672,3.569A9.427,9.427,0,0,1,35.3,58.768C25.587,57.71,15.783,56.327,15.783,39.9c0-4.7,1.321-7.052,4.1-10.057a15.866,15.866,0,0,1,.452-11.593c3.633-1.11,11.994,4.61,11.994,4.61a41.78,41.78,0,0,1,21.832,0s8.361-5.737,11.994-4.61a15.858,15.858,0,0,1,.452,11.593c2.781,3.022,4.485,5.378,4.485,10.057,0,16.477-10.238,17.791-19.955,18.867,1.6,1.349,2.955,3.91,2.955,7.922,0,5.754-.052,12.874-.052,14.274,0,1.11.8,2.459,3.007,2.066A42.467,42.467,0,0,0,86.217,42.224C86.217,18.542,66.662.563,42.552.563ZM16.9,59.451c-.226.171-.174.563.122.888.278.273.678.393.9.171.226-.171.174-.563-.122-.888C17.522,59.349,17.122,59.229,16.9,59.451Zm-1.877-1.383c-.122.222.052.5.4.666a.523.523,0,0,0,.747-.12c.122-.222-.052-.5-.4-.666C15.418,57.846,15.14,57.9,15.018,58.068Zm5.632,6.078c-.278.222-.174.734.226,1.059.4.393.9.444,1.13.171.226-.222.122-.734-.226-1.059C21.4,63.925,20.876,63.874,20.65,64.147Zm-1.982-2.51c-.278.171-.278.615,0,1.007s.747.563.973.393a.769.769,0,0,0,0-1.059C19.4,61.586,18.947,61.415,18.669,61.637Z" transform="translate(0 -0.563)" fill="#ebc521"/>
</svg>
