<svg xmlns="http://www.w3.org/2000/svg" width="119.93" height="119.93" viewBox="0 0 119.93 119.93">
  <path id="Icon_awesome-chevron-circle-up" data-name="Icon awesome-chevron-circle-up" d="M.563,60.528a59.965,59.965,0,1,1,59.965,59.965A59.955,59.955,0,0,1,.563,60.528Zm55.854-27.54L23.654,65.75a5.779,5.779,0,0,0,0,8.2l4.111,4.111a5.779,5.779,0,0,0,8.2,0L60.528,53.491,85.094,78.058a5.779,5.779,0,0,0,8.2,0L97.4,73.947a5.779,5.779,0,0,0,0-8.2L64.638,32.987A5.808,5.808,0,0,0,56.417,32.987Z" transform="translate(-0.563 -0.563)" fill="#ebc521"/>
</svg>
